<svg xmlns="http://www.w3.org/2000/svg" viewBox="0 0 48 48" role="img" aria-label="KathaGPT">
  <defs>
    <linearGradient id="kathagpt-sky" x1="6" y1="42" x2="42" y2="6" gradientUnits="userSpaceOnUse">
      <stop offset="0%" stop-color="#312e81"/>
      <stop offset="45%" stop-color="#0891b2"/>
      <stop offset="100%" stop-color="#10b981"/>
    </linearGradient>
    <linearGradient id="kathagpt-glow" x1="18" y1="10" x2="34" y2="30" gradientUnits="userSpaceOnUse">
      <stop offset="0%" stop-color="#ffffff" stop-opacity="1"/>
      <stop offset="100%" stop-color="#ecfeff" stop-opacity="0.85"/>
    </linearGradient>
  </defs>
  <rect width="48" height="48" rx="14" fill="url(#kathagpt-sky)"/>
  <path
    fill="none"
    stroke="url(#kathagpt-glow)"
    stroke-width="2.4"
    stroke-linecap="round"
    stroke-linejoin="round"
    d="M14 30c0-8.5 7.2-14.5 15-14.5s15 6 15 14.5c0 1.2-.2 2.4-.5 3.5l2 5.5-6.2-2.4c-2.1 1.2-4.6 1.9-7.3 1.9-7.8 0-15-6-15-14.5z"
    opacity="0.95"
  />
  <path
    fill="#ffffff"
    d="M17.5 28.2 24 14.8l4.2 8.1 3.3-2.1L24 10.5l-8.8 17.7z"
  />
  <circle cx="33.5" cy="14.5" r="2.2" fill="#fde68a"/>
  <path
    fill="#fde68a"
    d="M33.5 10.8v1.6M33.5 16.6v1.6M31.1 14.5h1.6M35.9 14.5h1.6"
    stroke="#fde68a"
    stroke-width="1.1"
    stroke-linecap="round"
  />
</svg>
